<svg height="512pt" viewBox="-16 0 512 512" width="512pt" xmlns="http://www.w3.org/2000/svg"><path d="m417.941406 91.371094 30.777344 69.5625-27.421875 12.132812-30.777344-69.566406zm0 0" fill="#663325"/><path d="m327.3125 62.25 112.769531-41.027344 20.527344 56.375-112.769531 41.027344zm0 0" fill="#ff9f00"/><path d="m336.277344 43.027344-28.191406 10.257812 30.792968 84.566406 28.191406-10.257812zm0 0" fill="#663325"/><path d="m451.648438 94.820312 28.191406-10.253906-30.792969-84.566406-28.191406 10.257812zm0 0" fill="#663325"/><path d="m450 151c-16.570312 0-30 13.429688-30 30v30l30 30 30-30v-30c0-16.570312-13.429688-30-30-30zm0 0" fill="#ffa78f"/><path d="m197.144531 411.007812-77.144531-110.007812h-21.210938l-68.789062 68.789062v127.210938h60l15-31 15 31 105 15zm0 0" fill="#4a696f"/><path d="m420 211v90h-90l-77.144531 110.007812-27.855469 100.992188 135-15v-136h75c24.851562 0 45-20.148438 45-45v-105zm0 0" fill="#384949"/><path d="m330 301-105 211-105-211h38.699219l45 30h42.601562l45-30zm0 0" fill="#dfd7d5"/><path d="m330 301-105 211v-181h21.300781l45-30zm0 0" fill="#c4b3af"/><path d="m90 391h30v106h-30zm0 0" fill="#384949"/><path d="m0 451h420v61h-420zm0 0" fill="#99503d"/><path d="m225 451h195v61h-195zm0 0" fill="#663325"/><path d="m255 247.898438v53.101562l-30 53.699219-30-53.699219v-53.101562zm0 0" fill="#ffa78f"/><path d="m255 247.898438v53.101562l-30 53.699219v-106.800781zm0 0" fill="#f89580"/><path d="m225 325-17 6-4.300781 15-19.199219 19.5 21 21 19.5-19.199219 19.5 19.199219 21-21-19.199219-19.5-4.300781-15zm0 0" fill="#3e5959"/><path d="m244.5 386.5 21-21-19.199219-19.5-4.300781-15-17-6v42.300781zm0 0" fill="#384949"/><path d="m225 325-30-24h-36.300781l45 45zm0 0" fill="#ede9e8"/><path d="m225 325 30-24h36.300781l-45 45zm0 0" fill="#dfd7d5"/><path d="m300 115.300781v80.699219c0 41.398438-33.601562 75-75 75s-75-33.601562-75-75v-80.699219l75 7.5zm0 0" fill="#ffcebf"/><path d="m300 115.300781v80.699219c0 41.398438-33.601562 75-75 75v-148.199219zm0 0" fill="#ffa78f"/><path d="m300 71v44.300781l-75 37.5-75-37.5v-44.300781zm0 0" fill="#99503d"/><path d="m300 115.300781-75 37.5v-81.800781h75zm0 0" fill="#663325"/></svg>