<svg height="512" viewBox="0 0 64 64" width="512" xmlns="http://www.w3.org/2000/svg"><g id="Fill_Outline" data-name="Fill Outline"><g id="Color"><g><path d="m37 3 4.969 5.454 7.031-2.239 1.576 7.209 7.209 1.576-2.239 7.031 5.454 4.969-5.454 4.969 2.239 7.031-7.209 1.576-1.576 7.209-7.031-2.239-4.969 5.454-4.969-5.454-7.031 2.239-1.576-7.209-7.209-1.576 2.239-7.031-5.454-4.969 5.454-4.969-2.239-7.031 7.209-1.576 1.576-7.209 7.031 2.239z" fill="#f9e109"/><path d="m33.261 40.957-5.291 1.684-1.187-5.424-5.424-1.187 1.684-5.29-4.104-3.74 4.104-3.74-1.684-5.29 5.424-1.187 1.187-5.424 5.291 1.684 3.739-4.104 3.739 4.104 5.291-1.684 1.187 5.424 5.424 1.187-1.684 5.29 4.104 3.74-4.104 3.74 1.684 5.29-5.424 1.187-1.187 5.424-5.291-1.684-3.739 4.104z" fill="#fcbc04"/><g><path d="m9.16 41.987h8v12h-8z" fill="#c4f236" transform="matrix(-.866 .5 -.5 -.866 48.551 82.964)"/><path d="m6 55.585 6.696-.402-6-10.392-3.696 5.598z" fill="#57b7eb"/><path d="m21.241 60.642a2.67 2.67 0 0 0 .633-4.118l-3.982-4.341-3.464 2 3.165 5.481a2.67 2.67 0 0 0 3.648.978z" fill="#57b7eb"/><path d="m23.749 30.326 10 17.321a23.811 23.811 0 0 0 -13.441 3.141l-.684.4-6-10.392.684-.395a23.817 23.817 0 0 0 9.441-10.075z" fill="#84d2f4"/><path d="m17.124 46.853 2.5 4.33.684-.4a23.776 23.776 0 0 1 13.441-3.141l-7-12.124a21.952 21.952 0 0 1 -9.6 11.315z" fill="#57b7eb"/><path d="m5.964 47.523-.5-.866 1.236-1.866 6 10.392-6.7.4-1.05-1.82a5 5 0 0 0 1.014-6.24z" fill="#4891d3"/><path d="m14.428 54.183 1.515 2.624a3 3 0 0 1 3.343.749l2.469 2.7a2.672 2.672 0 0 0 .121-3.731l-3.984-4.339z" fill="#4891d3"/><path d="m17.124 46.853 2.5 4.33-6.928 4-6-10.392.671.694a8.007 8.007 0 0 0 9.757 1.368z" fill="#a1d51c"/></g><path d="m59 52h-6l3-4z" fill="#f9e109"/><path d="m56 49v-1l-3 4h6a3 3 0 0 1 -3-3z" fill="#fcbc04"/><path d="m15 7h-6l3-4z" fill="#f9e109"/><path d="m12 4v-1l-3 4h6a3 3 0 0 1 -3-3z" fill="#fcbc04"/></g></g><g id="Outline_copy" data-name="Outline copy"><g fill="#39519d"><path d="m23.209 14.4a1 1 0 0 0 1.191-.762l1.342-6.138 5.986 1.905a1 1 0 0 0 1.042-.279l4.23-4.642 4.23 4.644a1 1 0 0 0 1.042.279l5.986-1.907 1.342 6.138a1 1 0 0 0 .763.762l6.137 1.342-1.906 5.985a1 1 0 0 0 .28 1.043l4.641 4.23-2.015 1.841a1 1 0 1 0 1.347 1.478l2.831-2.58a1 1 0 0 0 0-1.478l-4.98-4.538 2.039-6.423a1 1 0 0 0 -.737-1.277l-6.582-1.439-1.441-6.584a1 1 0 0 0 -1.28-.739l-6.42 2.044-4.538-4.979a1.031 1.031 0 0 0 -1.478 0l-4.538 4.981-6.423-2.044a1 1 0 0 0 -1.277.737l-1.577 7.21a1 1 0 0 0 .763 1.19z"/><path d="m33.964 14.134-3.464-2a1 1 0 0 0 -1.366.366l-4 6.928a1 1 0 1 0 1.732 1l1.5-2.6 1.732 1a1 1 0 1 0 1-1.732l-1.732-1 1-1.732 2.6 1.5a1 1 0 1 0 1-1.732z"/><path d="m45.955 23.366a1 1 0 0 0 1-1.732l-3.465-2a1 1 0 0 0 -1.366.366l-4 6.928a1 1 0 0 0 .366 1.366l3.465 2a.992.992 0 0 0 .5.134 1 1 0 0 0 .5-1.866l-2.6-1.5 1-1.732 1.732 1a1 1 0 1 0 1-1.732l-1.731-1 1-1.732z"/><path d="m52.883 27.366a1 1 0 0 0 1-1.732l-3.465-2a1 1 0 0 0 -1.366.366l-4 6.928a1 1 0 0 0 .366 1.366l3.465 2a1 1 0 0 0 1-1.732l-2.6-1.5 1-1.732 1.733 1a.992.992 0 0 0 .5.134 1 1 0 0 0 .5-1.866l-1.732-1 1-1.732z"/><path d="m39.393 20.732a3 3 0 0 0 -1.1-4.1l-1.732-1a1 1 0 0 0 -1.361.368l-4 6.928a1 1 0 1 0 1.732 1l1.5-2.6.866.5a1 1 0 0 1 .367 1.366l-1 1.732a1 1 0 1 0 1.731 1l1-1.732a2.979 2.979 0 0 0 .324-2.121 2.968 2.968 0 0 0 1.673-1.341zm-1.732-1a1 1 0 0 1 -1.361.368l-.866-.5 1-1.732.866.5a1 1 0 0 1 .361 1.364z"/><path d="m33.08 37.486a1.006 1.006 0 0 0 .5-.133l5.2-3a1 1 0 0 0 -1-1.733l-5.2 3a1 1 0 0 0 .5 1.866z"/><path d="m35.578 41.816h.061l4.464-.267a1 1 0 0 0 -.12-2l-4.464.267a1 1 0 0 0 .059 2z"/><path d="m30.027 32.99a1 1 0 0 0 1.386-.283l2.464-3.731a1 1 0 0 0 -1.669-1.1l-2.464 3.731a1 1 0 0 0 .283 1.383z"/><path d="m19.472 52.426 1.336-.772a22.721 22.721 0 0 1 12.692-3.015l2.765 3.035a1 1 0 0 0 1.478 0l4.538-4.981 6.42 2.044a1 1 0 0 0 1.276-.737l1.44-6.582 6.583-1.441a1 1 0 0 0 .739-1.281l-2.239-7.03a1 1 0 0 0 -1.906.607l1.906 5.985-6.137 1.342a1 1 0 0 0 -.763.762l-1.342 6.138-5.986-1.9a1.006 1.006 0 0 0 -1.042.279l-4.23 4.637-2.779-3.052-2.606-4.513a1 1 0 0 0 -1.733 1l2.106 3.649a24.731 24.731 0 0 0 -11.994 3.224l-5.007-8.671a24.721 24.721 0 0 0 8.79-8.776l4.105 7.111a1 1 0 1 0 1.733-1l-5-8.66a.978.978 0 0 0 -.9-.5 1 1 0 0 0 -.864.556 22.763 22.763 0 0 1 -4.724 6.4l1.279-4.015a1 1 0 0 0 -.28-1.043l-4.641-4.226 4.642-4.23a1 1 0 0 0 .28-1.043l-1.907-5.985 2.692-.589a1 1 0 1 0 -.427-1.953l-3.765.823a1 1 0 0 0 -.738 1.281l2.044 6.419-4.98 4.538a1 1 0 0 0 0 1.478l4.98 4.538-2.006 6.313c-.483.33-.979.646-1.489.94l-4.151 2.395a1 1 0 0 0 1 1.732l2.6-1.5 5 8.659-5.195 3-1-1.731 1.731-1a1 1 0 1 0 -1-1.732l-1.732 1-1-1.731 1.731-1a1 1 0 1 0 -1-1.732l-1.732 1-1.5-2.6a1 1 0 0 0 -.837-.5 1.034 1.034 0 0 0 -.864.449l-3.7 5.6a1 1 0 0 0 -.032 1.051l3 5.2a1 1 0 0 0 .866.5h.06l6.676-.4a.991.991 0 0 0 .46-.133l.864-.5 2.665 4.615a3.671 3.671 0 1 0 5.884-4.316zm-12.915 2.124-1.191-2.063.866-.5a1 1 0 1 0 -1-1.732l-.866.5-.191-.331 2.464-3.732 4.382 7.589zm15 4.032a1.671 1.671 0 0 1 -3.1.582l-2.665-4.615 1.9-1.1 3.445 3.751a1.664 1.664 0 0 1 .42 1.382z"/><path d="m8.781 8h2v6.5a2.5 2.5 0 0 1 -2.5 2.5 4.5 4.5 0 0 0 -4.5 4.5v21.5a1 1 0 0 0 2 0v-21.5a2.5 2.5 0 0 1 2.5-2.5 4.505 4.505 0 0 0 4.5-4.5v-6.5h2a1 1 0 0 0 .8-1.6l-3-4a1.036 1.036 0 0 0 -1.6 0l-3 4a1 1 0 0 0 .8 1.6zm3-3.333 1 1.333h-2z"/><path d="m56.581 47.4a1.036 1.036 0 0 0 -1.6 0l-3 4a1 1 0 0 0 .8 1.6h2.219v4a3 3 0 0 1 -3 3h-24a1 1 0 0 0 0 2h24a5.006 5.006 0 0 0 5-5v-4h1.781a1 1 0 0 0 .8-1.6zm-.8 2.267 1 1.333h-2z"/><path d="m5 15a3 3 0 1 0 -3-3 3 3 0 0 0 3 3zm0-4a1 1 0 1 1 -1 1 1 1 0 0 1 1-1z"/><path d="m45 54a1 1 0 0 1 1 1 1 1 0 0 0 2 0 3 3 0 1 0 -3 3 1 1 0 0 0 0-2 1 1 0 0 1 0-2z"/><path d="m12.6 33.077a1 1 0 0 0 -1.414 0l-.708.708-.707-.708a1 1 0 0 0 -1.414 1.414l.707.708-.707.707a1 1 0 1 0 1.412 1.414l.707-.707.708.707a1 1 0 0 0 1.416-1.414l-.71-.706.708-.708a1 1 0 0 0 .002-1.415z"/><path d="m61.6 41.077a1 1 0 0 0 -1.414 0l-.708.708-.707-.708a1 1 0 0 0 -1.414 1.414l.707.708-.707.707a1 1 0 1 0 1.414 1.414l.707-.707.708.707a1 1 0 0 0 1.414-1.414l-.71-.706.708-.708a1 1 0 0 0 .002-1.415z"/></g></g></g></svg>