<svg id="Layer_1" enable-background="new 0 0 256 256" height="512" viewBox="0 0 256 256" width="512" xmlns="http://www.w3.org/2000/svg"><g><path d="m20.148 37.583h215.704v138.915h-215.704z" fill="#f46275"/><g><path d="m20.148 37.583h10.667v138.915h-10.667z" fill="#f43075"/></g><g><path d="m225.185 37.583h10.667v138.915h-10.667z" fill="#f48875"/></g><path d="m20.148 37.583h215.704v17.621h-215.704z" fill="#63bce7"/><g><path d="m20.148 37.583h10.667v17.622h-10.667z" fill="#6377e7"/></g><g><path d="m225.185 37.583h10.667v17.622h-10.667z" fill="#67dceb"/></g><g fill="#f8af23"><path d="m27.306 17.81h29v10.417h-29z"/><path d="m84.769 17.81h29v10.417h-29z"/><path d="m142.231 17.81h29v10.417h-29z"/><path d="m199.694 17.81h29v10.417h-29z"/></g><path d="m32.667 176.498h190.667v11.04h-190.667z" fill="#f8af23"/><g><path d="m32.667 176.498h10.667v11.04h-10.667z" fill="#f87023"/></g><g><path d="m212.667 176.498h10.667v11.04h-10.667z" fill="#f8d323"/></g><path d="m197 187.538h18v38.898h-18z" fill="#63bce7"/><path d="m41 187.538h18v38.898h-18z" fill="#63bce7"/><g><path d="m41 187.538h10.667v38.898h-10.667z" fill="#6377e7"/></g><g><path d="m204.333 187.538h10.667v38.898h-10.667z" fill="#67dceb"/></g><g><path d="m41.403 85.878h89.597v59.483h-89.597z" fill="#9e9e9e"/><path d="m72.087 145.361 44.799-42.329 14.117 13.339v28.99z" fill="#63bce7"/><g fill="#f8af23"><path d="m41.403 145.361 44.799-42.329 44.798 42.329z"/><circle cx="59.902" cy="103.869" r="9.043"/></g></g><g fill="#3f3679"><path d="m20.148 177.998h11.019v9.54c0 .828.672 1.5 1.5 1.5h6.833v35.897h-13.61c-.828 0-1.5.672-1.5 1.5s.672 1.5 1.5 1.5h15.11 18 138 18 15.11c.828 0 1.5-.672 1.5-1.5s-.672-1.5-1.5-1.5h-13.61v-35.897h6.833c.828 0 1.5-.672 1.5-1.5v-9.54h11.019c.828 0 1.5-.672 1.5-1.5v-121.294-17.621c0-.828-.672-1.5-1.5-1.5h-20.157v-6.355h13c.828 0 1.5-.672 1.5-1.5v-10.417c0-.828-.672-1.5-1.5-1.5h-29c-.828 0-1.5.672-1.5 1.5v10.417c0 .828.672 1.5 1.5 1.5h13v6.355h-54.463v-6.355h13c.828 0 1.5-.672 1.5-1.5v-10.417c0-.828-.672-1.5-1.5-1.5h-29c-.828 0-1.5.672-1.5 1.5v10.417c0 .828.672 1.5 1.5 1.5h13v6.355h-54.463v-6.355h13c.828 0 1.5-.672 1.5-1.5v-10.417c0-.828-.672-1.5-1.5-1.5h-29c-.828 0-1.5.672-1.5 1.5v10.417c0 .828.672 1.5 1.5 1.5h13v6.355h-54.463v-6.355h13c.828 0 1.5-.672 1.5-1.5v-10.417c0-.828-.672-1.5-1.5-1.5h-29c-.828 0-1.5.672-1.5 1.5v10.417c0 .828.672 1.5 1.5 1.5h13v6.355h-20.158c-.828 0-1.5.672-1.5 1.5v17.621 121.294c0 .828.672 1.5 1.5 1.5zm181.046-158.687h26v7.417h-26zm-57.463 0h26v7.417h-26zm-57.462 0h26v7.417h-26zm-57.463 0h26v7.417h-26zm13.694 205.625v-35.897h15v35.897zm153-35.898v35.897h-135v-35.897zm18 35.898h-15v-35.897h15zm8.333-38.898h-6.833-18-138-18-6.833v-8.04h187.666zm1.5-11.04h-190.666-11.019v-118.294h212.703v118.294zm11.019-135.915v14.621h-212.704v-5.811h159.389c.828 0 1.5-.672 1.5-1.5s-.672-1.5-1.5-1.5h-159.389v-5.811h212.704z"/><path d="m199.694 47.894h22.093c.828 0 1.5-.672 1.5-1.5s-.672-1.5-1.5-1.5h-22.093c-.828 0-1.5.672-1.5 1.5s.672 1.5 1.5 1.5z"/><path d="m132.5 85.878c0-.828-.672-1.5-1.5-1.5h-89.598c-.828 0-1.5.672-1.5 1.5v59.483c0 .828.672 1.5 1.5 1.5h89.598c.828 0 1.5-.672 1.5-1.5v-20.41c0-.01.003-.02.003-.029v-8.551c0-.01-.003-.019-.003-.028zm-5.271 57.983h-82.055l41.027-38.766zm-23.502-26.332 13.158-12.433 12.614 11.919v24.866zm25.773-30.151v25.51l-11.584-10.945c-.578-.547-1.482-.547-2.061 0l-14.312 13.523-14.312-13.523c-.578-.547-1.482-.547-2.061 0l-42.269 39.939v-54.504z"/><path d="m59.902 114.412c5.813 0 10.544-4.729 10.544-10.543s-4.73-10.544-10.544-10.544-10.543 4.73-10.543 10.544 4.73 10.543 10.543 10.543zm0-18.087c4.16 0 7.544 3.384 7.544 7.544 0 4.159-3.384 7.543-7.544 7.543-4.159 0-7.543-3.384-7.543-7.543 0-4.16 3.384-7.544 7.543-7.544z"/><path d="m214.598 84.378h-71.964c-.828 0-1.5.672-1.5 1.5s.672 1.5 1.5 1.5h71.964c.828 0 1.5-.672 1.5-1.5s-.672-1.5-1.5-1.5z"/><path d="m214.598 96.274h-71.964c-.828 0-1.5.672-1.5 1.5s.672 1.5 1.5 1.5h71.964c.828 0 1.5-.672 1.5-1.5s-.672-1.5-1.5-1.5z"/><path d="m214.598 108.172h-71.964c-.828 0-1.5.672-1.5 1.5s.672 1.5 1.5 1.5h71.964c.828 0 1.5-.672 1.5-1.5s-.672-1.5-1.5-1.5z"/><path d="m214.598 120.068h-71.964c-.828 0-1.5.672-1.5 1.5s.672 1.5 1.5 1.5h71.964c.828 0 1.5-.672 1.5-1.5s-.672-1.5-1.5-1.5z"/><path d="m214.598 131.965h-71.964c-.828 0-1.5.672-1.5 1.5s.672 1.5 1.5 1.5h71.964c.828 0 1.5-.672 1.5-1.5s-.672-1.5-1.5-1.5z"/><path d="m214.598 143.861h-71.964c-.828 0-1.5.672-1.5 1.5s.672 1.5 1.5 1.5h71.964c.828 0 1.5-.672 1.5-1.5s-.672-1.5-1.5-1.5z"/><path d="m25.89 236.689h-18.5c-.828 0-1.5.672-1.5 1.5s.672 1.5 1.5 1.5h18.5c.828 0 1.5-.672 1.5-1.5s-.672-1.5-1.5-1.5z"/><path d="m248.61 236.689h-18.5c-.828 0-1.5.672-1.5 1.5s.672 1.5 1.5 1.5h18.5c.828 0 1.5-.672 1.5-1.5s-.672-1.5-1.5-1.5z"/><path d="m215.337 236.689h-174.674c-.828 0-1.5.672-1.5 1.5s.672 1.5 1.5 1.5h174.674c.828 0 1.5-.672 1.5-1.5s-.672-1.5-1.5-1.5z"/><path d="m7.39 227.936h7.943c.828 0 1.5-.672 1.5-1.5s-.672-1.5-1.5-1.5h-7.943c-.828 0-1.5.672-1.5 1.5s.672 1.5 1.5 1.5z"/><path d="m240.667 227.936h7.943c.828 0 1.5-.672 1.5-1.5s-.672-1.5-1.5-1.5h-7.943c-.828 0-1.5.672-1.5 1.5s.672 1.5 1.5 1.5z"/></g></g></svg>