<svg height="512pt" viewBox="0 0 512 512" width="512pt" xmlns="http://www.w3.org/2000/svg"><path d="m512 256c0 141.386719-114.613281 256-256 256s-256-114.613281-256-256 114.613281-256 256-256 256 114.613281 256 256zm0 0" fill="#005fd2"/><path d="m509.910156 288.832031c-40.839844-40.949219-114.226562-114.484375-114.226562-114.484375-4.789063-5.046875-10.410156-9.296875-16.855469-12.773437l-41.433594-41.523438c-5.734375-6.046875-12.652343-10.964843-20.757812-14.761719-8.800781-4.109374-18.671875-6.171874-29.601563-6.171874h-104.589844c-6.457031 0-12.0625 4.445312-13.535156 10.734374l-54.941406 234.429688c-1.199219 5.109375.578125 10.085938 4.054688 13.335938l153.308593 153.914062c123.28125-7.285156 223.101563-101.796875 238.578125-222.699219zm0 0" fill="#003d8d"/><path d="m227.207031 164.15625c1.472657-6.285156 7.082031-10.730469 13.539063-10.730469h104.585937c10.933594 0 20.800781 2.058594 29.601563 6.171875 8.800781 4.117188 16.203125 9.5625 22.203125 16.335938 6 6.78125 10.601562 14.523437 13.800781 23.238281 3.203125 8.710937 4.800781 17.667969 4.800781 26.863281 0 12.34375-2.9375 24.628906-8.800781 36.851563-5.867188 12.222656-13.800781 23.113281-23.800781 32.671875-10 9.5625-21.601563 17.371094-34.800781 23.417968-13.203126 6.050782-27.273438 9.074219-42.207032 9.074219h-45.207031l-19.019531 77.046875c-1.535156 6.207032-7.101563 10.570313-13.5 10.570313h-42.597656c-8.960938 0-15.582032-8.351563-13.539063-17.078125zm0 0" fill="#78b9eb"/><path d="m410.941406 199.171875c-3.203125-8.710937-7.800781-16.460937-13.800781-23.242187-6-6.769532-13.402344-12.210938-22.199219-16.328126-6.019531-2.820312-12.542968-4.671874-19.550781-5.550781-3.242187-.421875-6.601563-.621093-10.0625-.621093h-91.328125v202.648437l6.921875-28.027344h45.207031c14.929688 0 29-3.019531 42.199219-9.070312 13.203125-6.050781 24.800781-13.859375 34.8125-23.421875 10-9.558594 17.929687-20.449219 23.800781-32.679688 5.859375-12.207031 8.796875-24.5 8.796875-36.839844 0-9.199218-1.597656-18.160156-4.796875-26.867187zm0 0" fill="#5698e1"/><path d="m168.910156 109.851562c1.472656-6.289062 7.078125-10.734374 13.535156-10.734374h104.589844c10.929688 0 20.800782 2.0625 29.601563 6.171874 8.800781 4.121094 16.203125 9.566407 22.203125 16.339844 6 6.777344 10.597656 14.523438 13.800781 23.234375 3.199219 8.710938 4.800781 17.667969 4.800781 26.867188 0 12.34375-2.9375 24.628906-8.800781 36.847656-5.871094 12.226563-13.800781 23.117187-23.804687 32.675781-10 9.5625-21.601563 17.367188-34.800782 23.414063-13.203125 6.054687-27.273437 9.078125-42.203125 9.078125h-46.308593l-18.007813 76.882812c-1.472656 6.285156-7.078125 10.730469-13.535156 10.730469h-42.476563c-8.960937 0-15.582031-8.351563-13.535156-17.078125zm0 0" fill="#fff"/><path d="m355.390625 154.050781c-.71875-3.089843-1.640625-6.152343-2.75-9.191406-3.199219-8.710937-7.800781-16.449219-13.800781-23.230469-6-6.777344-13.398438-12.21875-22.199219-16.339844-8.800781-4.109374-18.671875-6.167968-29.609375-6.167968h-33.03125v174.4375c12.648438-.71875 24.660156-3.679688 36.03125-8.886719 13.207031-6.050781 24.808594-13.851563 34.808594-23.421875 10-9.558594 17.929687-20.449219 23.800781-32.671875 5.859375-12.21875 8.800781-24.507813 8.800781-36.847656 0-6-.679687-11.890625-2.050781-17.679688zm0 0" fill="#fff5cb"/></svg>